<mxfile host="app.diagrams.net" agent="Mozilla/5.0 (Windows NT 10.0; Win64; x64) AppleWebKit/537.36 (KHTML, like Gecko) Chrome/133.0.0.0 Safari/537.36 Edg/133.0.0.0" version="26.0.14">
  <diagram name="Page-1" id="rmVyShfenJO33FMo0YmL">
    <mxGraphModel dx="1424" dy="1499" grid="0" gridSize="10" guides="1" tooltips="1" connect="1" arrows="1" fold="1" page="0" pageScale="1" pageWidth="850" pageHeight="1100" math="0" shadow="0">
      <root>
        <mxCell id="0" />
        <mxCell id="1" parent="0" />
        <mxCell id="NuvKzXES3Ksyc1iF0SYu-27" value="" style="swimlane;startSize=0;" vertex="1" parent="1">
          <mxGeometry x="-155" y="-190" width="824" height="546" as="geometry">
            <mxRectangle x="-155" y="-190" width="50" height="44" as="alternateBounds" />
          </mxGeometry>
        </mxCell>
        <mxCell id="I8v7dZetL3Mw16XREhYY-1" value="Actor" style="shape=umlActor;verticalLabelPosition=bottom;verticalAlign=top;html=1;" parent="1" vertex="1">
          <mxGeometry x="-124" y="68.5" width="30" height="60" as="geometry" />
        </mxCell>
        <mxCell id="I8v7dZetL3Mw16XREhYY-2" value="Nylex&lt;br&gt;or alternative&lt;br&gt;Cloud Storage Provider" style="shape=umlActor;verticalLabelPosition=bottom;verticalAlign=top;html=1;" parent="1" vertex="1">
          <mxGeometry x="581" y="133.5" width="30" height="60" as="geometry" />
        </mxCell>
        <mxCell id="I8v7dZetL3Mw16XREhYY-4" value="HCAR Client Database System" style="shape=umlFrame;whiteSpace=wrap;html=1;pointerEvents=0;width=181;height=30;" parent="1" vertex="1">
          <mxGeometry x="-36" y="-127" width="524" height="451" as="geometry" />
        </mxCell>
        <mxCell id="I8v7dZetL3Mw16XREhYY-5" value="Log In" style="ellipse;whiteSpace=wrap;html=1;" parent="1" vertex="1">
          <mxGeometry x="5" y="-78" width="140" height="70" as="geometry" />
        </mxCell>
        <mxCell id="I8v7dZetL3Mw16XREhYY-6" value="View All Clients" style="ellipse;whiteSpace=wrap;html=1;" parent="1" vertex="1">
          <mxGeometry x="5" y="18" width="140" height="70" as="geometry" />
        </mxCell>
        <mxCell id="I8v7dZetL3Mw16XREhYY-7" value="Search Clients" style="ellipse;whiteSpace=wrap;html=1;" parent="1" vertex="1">
          <mxGeometry x="5" y="108" width="140" height="70" as="geometry" />
        </mxCell>
        <mxCell id="I8v7dZetL3Mw16XREhYY-8" value="View Individual Client Details" style="ellipse;whiteSpace=wrap;html=1;" parent="1" vertex="1">
          <mxGeometry x="156" y="63.5" width="140" height="70" as="geometry" />
        </mxCell>
        <mxCell id="I8v7dZetL3Mw16XREhYY-9" value="View Alerts" style="ellipse;whiteSpace=wrap;html=1;" parent="1" vertex="1">
          <mxGeometry x="5" y="205" width="140" height="70" as="geometry" />
        </mxCell>
        <mxCell id="I8v7dZetL3Mw16XREhYY-10" value="Edit Existing Client" style="ellipse;whiteSpace=wrap;html=1;" parent="1" vertex="1">
          <mxGeometry x="337" y="46" width="140" height="70" as="geometry" />
        </mxCell>
        <mxCell id="NuvKzXES3Ksyc1iF0SYu-1" style="edgeStyle=orthogonalEdgeStyle;rounded=0;orthogonalLoop=1;jettySize=auto;html=1;elbow=vertical;" edge="1" parent="1" source="I8v7dZetL3Mw16XREhYY-5" target="I8v7dZetL3Mw16XREhYY-5">
          <mxGeometry relative="1" as="geometry">
            <Array as="points">
              <mxPoint x="176" y="-43" />
            </Array>
          </mxGeometry>
        </mxCell>
        <mxCell id="NuvKzXES3Ksyc1iF0SYu-29" value="3x Max in 15 min" style="edgeLabel;html=1;align=center;verticalAlign=middle;resizable=0;points=[];" vertex="1" connectable="0" parent="NuvKzXES3Ksyc1iF0SYu-1">
          <mxGeometry x="-0.296" relative="1" as="geometry">
            <mxPoint x="11" y="-14" as="offset" />
          </mxGeometry>
        </mxCell>
        <mxCell id="NuvKzXES3Ksyc1iF0SYu-4" value="Create Case Notes" style="ellipse;whiteSpace=wrap;html=1;" vertex="1" parent="1">
          <mxGeometry x="337" y="-33" width="140" height="70" as="geometry" />
        </mxCell>
        <mxCell id="NuvKzXES3Ksyc1iF0SYu-5" value="Import Documents" style="ellipse;whiteSpace=wrap;html=1;" vertex="1" parent="1">
          <mxGeometry x="337" y="135" width="140" height="70" as="geometry" />
        </mxCell>
        <mxCell id="NuvKzXES3Ksyc1iF0SYu-12" value="&lt;font style=&quot;font-size: 6px;&quot;&gt;&amp;lt;&amp;lt;extend&amp;gt;&amp;gt;&lt;/font&gt;" style="html=1;verticalAlign=bottom;endArrow=open;dashed=1;endSize=8;curved=0;rounded=0;exitX=0.412;exitY=0.009;exitDx=0;exitDy=0;exitPerimeter=0;" edge="1" parent="1" source="I8v7dZetL3Mw16XREhYY-8">
          <mxGeometry relative="1" as="geometry">
            <mxPoint x="225" y="52.760000000000005" as="sourcePoint" />
            <mxPoint x="145" y="52.760000000000005" as="targetPoint" />
          </mxGeometry>
        </mxCell>
        <mxCell id="NuvKzXES3Ksyc1iF0SYu-13" value="&lt;font style=&quot;font-size: 6px;&quot;&gt;&amp;lt;&amp;lt;extend&amp;gt;&amp;gt;&lt;/font&gt;" style="html=1;verticalAlign=bottom;endArrow=open;dashed=1;endSize=8;curved=0;rounded=0;exitX=0;exitY=0.5;exitDx=0;exitDy=0;entryX=1;entryY=1;entryDx=0;entryDy=0;" edge="1" parent="1" source="NuvKzXES3Ksyc1iF0SYu-5" target="I8v7dZetL3Mw16XREhYY-8">
          <mxGeometry x="-0.2098" y="-11" relative="1" as="geometry">
            <mxPoint x="338" y="164.24" as="sourcePoint" />
            <mxPoint x="264" y="153" as="targetPoint" />
            <mxPoint as="offset" />
          </mxGeometry>
        </mxCell>
        <mxCell id="NuvKzXES3Ksyc1iF0SYu-14" value="&lt;font style=&quot;font-size: 6px;&quot;&gt;&amp;lt;&amp;lt;extend&amp;gt;&amp;gt;&lt;/font&gt;" style="html=1;verticalAlign=bottom;endArrow=open;dashed=1;endSize=8;curved=0;rounded=0;exitX=0.5;exitY=1;exitDx=0;exitDy=0;entryX=0.992;entryY=0.584;entryDx=0;entryDy=0;entryPerimeter=0;" edge="1" parent="1" source="I8v7dZetL3Mw16XREhYY-8" target="I8v7dZetL3Mw16XREhYY-7">
          <mxGeometry x="0.4933" y="-3" relative="1" as="geometry">
            <mxPoint x="230" y="169.24" as="sourcePoint" />
            <mxPoint x="156" y="158" as="targetPoint" />
            <mxPoint as="offset" />
          </mxGeometry>
        </mxCell>
        <mxCell id="NuvKzXES3Ksyc1iF0SYu-15" value="&lt;font style=&quot;font-size: 6px;&quot;&gt;&amp;lt;&amp;lt;extend&amp;gt;&amp;gt;&lt;/font&gt;" style="html=1;verticalAlign=bottom;endArrow=open;dashed=1;endSize=8;curved=0;rounded=0;exitX=0;exitY=0.5;exitDx=0;exitDy=0;entryX=1;entryY=0.5;entryDx=0;entryDy=0;" edge="1" parent="1" source="I8v7dZetL3Mw16XREhYY-10" target="I8v7dZetL3Mw16XREhYY-8">
          <mxGeometry x="0.1549" y="-3" relative="1" as="geometry">
            <mxPoint x="353" y="72.24" as="sourcePoint" />
            <mxPoint x="279" y="61" as="targetPoint" />
            <mxPoint as="offset" />
          </mxGeometry>
        </mxCell>
        <mxCell id="NuvKzXES3Ksyc1iF0SYu-16" value="&lt;font style=&quot;font-size: 6px;&quot;&gt;&amp;lt;&amp;lt;extend&amp;gt;&amp;gt;&lt;/font&gt;" style="html=1;verticalAlign=bottom;endArrow=open;dashed=1;endSize=8;curved=0;rounded=0;exitX=0;exitY=0.5;exitDx=0;exitDy=0;entryX=1;entryY=0;entryDx=0;entryDy=0;" edge="1" parent="1" source="NuvKzXES3Ksyc1iF0SYu-4" target="I8v7dZetL3Mw16XREhYY-8">
          <mxGeometry x="0.0197" y="-11" relative="1" as="geometry">
            <mxPoint x="333" y="18" as="sourcePoint" />
            <mxPoint x="259" y="6.760000000000005" as="targetPoint" />
            <mxPoint as="offset" />
          </mxGeometry>
        </mxCell>
        <mxCell id="NuvKzXES3Ksyc1iF0SYu-20" value="" style="endArrow=none;html=1;rounded=0;entryX=0;entryY=0.5;entryDx=0;entryDy=0;exitX=1;exitY=0.3333333333333333;exitDx=0;exitDy=0;exitPerimeter=0;" edge="1" parent="1" source="I8v7dZetL3Mw16XREhYY-1" target="I8v7dZetL3Mw16XREhYY-5">
          <mxGeometry width="50" height="50" relative="1" as="geometry">
            <mxPoint x="-78" y="67" as="sourcePoint" />
            <mxPoint x="-2" y="102" as="targetPoint" />
          </mxGeometry>
        </mxCell>
        <mxCell id="NuvKzXES3Ksyc1iF0SYu-21" value="" style="endArrow=none;html=1;rounded=0;entryX=0;entryY=0.5;entryDx=0;entryDy=0;exitX=1;exitY=0.3333333333333333;exitDx=0;exitDy=0;exitPerimeter=0;" edge="1" parent="1" source="I8v7dZetL3Mw16XREhYY-1" target="I8v7dZetL3Mw16XREhYY-6">
          <mxGeometry width="50" height="50" relative="1" as="geometry">
            <mxPoint x="-52" y="152" as="sourcePoint" />
            <mxPoint x="-2" y="102" as="targetPoint" />
          </mxGeometry>
        </mxCell>
        <mxCell id="NuvKzXES3Ksyc1iF0SYu-22" value="" style="endArrow=none;html=1;rounded=0;entryX=0;entryY=0.5;entryDx=0;entryDy=0;exitX=1;exitY=0.3333333333333333;exitDx=0;exitDy=0;exitPerimeter=0;" edge="1" parent="1" source="I8v7dZetL3Mw16XREhYY-1" target="I8v7dZetL3Mw16XREhYY-7">
          <mxGeometry width="50" height="50" relative="1" as="geometry">
            <mxPoint x="12" y="160" as="sourcePoint" />
            <mxPoint x="62" y="110" as="targetPoint" />
          </mxGeometry>
        </mxCell>
        <mxCell id="NuvKzXES3Ksyc1iF0SYu-23" value="" style="endArrow=none;html=1;rounded=0;entryX=0;entryY=0.5;entryDx=0;entryDy=0;exitX=1;exitY=0.3333333333333333;exitDx=0;exitDy=0;exitPerimeter=0;" edge="1" parent="1" source="I8v7dZetL3Mw16XREhYY-1" target="I8v7dZetL3Mw16XREhYY-9">
          <mxGeometry width="50" height="50" relative="1" as="geometry">
            <mxPoint x="12" y="160" as="sourcePoint" />
            <mxPoint x="62" y="110" as="targetPoint" />
          </mxGeometry>
        </mxCell>
        <mxCell id="NuvKzXES3Ksyc1iF0SYu-24" value="" style="endArrow=none;html=1;rounded=0;entryX=1;entryY=0.5;entryDx=0;entryDy=0;exitX=0;exitY=0.3333333333333333;exitDx=0;exitDy=0;exitPerimeter=0;" edge="1" parent="1" source="I8v7dZetL3Mw16XREhYY-2" target="NuvKzXES3Ksyc1iF0SYu-5">
          <mxGeometry width="50" height="50" relative="1" as="geometry">
            <mxPoint x="512" y="211" as="sourcePoint" />
            <mxPoint x="562" y="161" as="targetPoint" />
          </mxGeometry>
        </mxCell>
        <mxCell id="NuvKzXES3Ksyc1iF0SYu-25" value="" style="endArrow=none;html=1;rounded=0;entryX=0;entryY=0.3333333333333333;entryDx=0;entryDy=0;entryPerimeter=0;" edge="1" parent="1" source="I8v7dZetL3Mw16XREhYY-8" target="I8v7dZetL3Mw16XREhYY-2">
          <mxGeometry width="50" height="50" relative="1" as="geometry">
            <mxPoint x="498" y="309" as="sourcePoint" />
            <mxPoint x="548" y="259" as="targetPoint" />
          </mxGeometry>
        </mxCell>
      </root>
    </mxGraphModel>
  </diagram>
</mxfile>
